<svg width="340" height="79" viewBox="0 0 340 79" fill="none" xmlns="http://www.w3.org/2000/svg">
<path d="M31.6914 63.8887C33.4167 63.8887 34.9954 63.7096 36.4277 63.3516C37.86 62.9935 39.3574 62.5378 40.9199 61.9844V75.9004C38.8366 76.8118 36.623 77.5443 34.2793 78.0977C31.9681 78.6836 29.0059 78.9766 25.3926 78.9766C21.8118 78.9766 18.6543 78.4232 15.9199 77.3164C13.1855 76.1771 11.0534 74.224 9.52344 71.457C8.02604 68.6576 7.27734 64.7676 7.27734 59.7871V36.9844H0.587891V29.2207L9.08398 23.2148L14.0156 11.5938H26.5156V22.6777H40.0898V36.9844H26.5156V58.5176C26.5156 60.3079 26.9714 61.6589 27.8828 62.5703C28.7943 63.4492 30.0638 63.8887 31.6914 63.8887ZM83.9863 21.7012C85.028 21.7012 86.1185 21.7826 87.2578 21.9453C88.3971 22.0755 89.2435 22.1895 89.7969 22.2871L88.0879 40.3047C87.4694 40.1419 86.6719 40.0117 85.6953 39.9141C84.7188 39.7839 83.3516 39.7188 81.5938 39.7188C80.3893 39.7188 79.1035 39.8327 77.7363 40.0605C76.3691 40.2884 75.0671 40.7767 73.8301 41.5254C72.6257 42.2415 71.6328 43.3483 70.8516 44.8457C70.0703 46.3105 69.6797 48.2962 69.6797 50.8027V78H50.5879V22.6777H64.7969L67.7754 31.5156H68.7031C69.7122 29.6927 70.998 28.0488 72.5605 26.584C74.1556 25.0866 75.9297 23.8984 77.8828 23.0195C79.8685 22.1406 81.903 21.7012 83.9863 21.7012ZM116.75 22.6777V78H97.6582V22.6777H116.75ZM107.277 0.412109C110.012 0.412109 112.388 0.981771 114.406 2.12109C116.457 3.26042 117.482 5.52279 117.482 8.9082C117.482 12.196 116.457 14.4258 114.406 15.5977C112.388 16.737 110.012 17.3066 107.277 17.3066C104.478 17.3066 102.085 16.737 100.1 15.5977C98.1465 14.4258 97.1699 12.196 97.1699 8.9082C97.1699 5.52279 98.1465 3.26042 100.1 2.12109C102.085 0.981771 104.478 0.412109 107.277 0.412109ZM157.18 63.8887C158.905 63.8887 160.484 63.7096 161.916 63.3516C163.348 62.9935 164.846 62.5378 166.408 61.9844V75.9004C164.325 76.8118 162.111 77.5443 159.768 78.0977C157.456 78.6836 154.494 78.9766 150.881 78.9766C147.3 78.9766 144.143 78.4232 141.408 77.3164C138.674 76.1771 136.542 74.224 135.012 71.457C133.514 68.6576 132.766 64.7676 132.766 59.7871V36.9844H126.076V29.2207L134.572 23.2148L139.504 11.5938H152.004V22.6777H165.578V36.9844H152.004V58.5176C152.004 60.3079 152.46 61.6589 153.371 62.5703C154.283 63.4492 155.552 63.8887 157.18 63.8887ZM209.475 21.7012C210.516 21.7012 211.607 21.7826 212.746 21.9453C213.885 22.0755 214.732 22.1895 215.285 22.2871L213.576 40.3047C212.958 40.1419 212.16 40.0117 211.184 39.9141C210.207 39.7839 208.84 39.7188 207.082 39.7188C205.878 39.7188 204.592 39.8327 203.225 40.0605C201.857 40.2884 200.555 40.7767 199.318 41.5254C198.114 42.2415 197.121 43.3483 196.34 44.8457C195.559 46.3105 195.168 48.2962 195.168 50.8027V78H176.076V22.6777H190.285L193.264 31.5156H194.191C195.201 29.6927 196.486 28.0488 198.049 26.584C199.644 25.0866 201.418 23.8984 203.371 23.0195C205.357 22.1406 207.391 21.7012 209.475 21.7012ZM250.051 21.7012C257.049 21.7012 262.518 23.4427 266.457 26.9258C270.396 30.3763 272.365 35.3079 272.365 41.7207V78H259.133L255.471 70.6758H255.08C253.518 72.6289 251.906 74.224 250.246 75.4609C248.618 76.6654 246.747 77.5443 244.631 78.0977C242.515 78.6836 239.927 78.9766 236.867 78.9766C233.677 78.9766 230.812 78.3255 228.273 77.0234C225.734 75.7214 223.732 73.752 222.268 71.1152C220.803 68.4785 220.07 65.1419 220.07 61.1055C220.07 55.181 222.121 50.7865 226.223 47.9219C230.324 45.0573 236.265 43.446 244.045 43.0879L253.273 42.7949V42.0137C253.273 39.5397 252.655 37.7819 251.418 36.7402C250.214 35.6986 248.586 35.1777 246.535 35.1777C244.354 35.1777 241.913 35.5684 239.211 36.3496C236.542 37.0983 233.856 38.0749 231.154 39.2793L225.637 26.6816C228.827 25.054 232.44 23.8171 236.477 22.9707C240.513 22.1243 245.038 21.7012 250.051 21.7012ZM253.371 53.293L248.977 53.4883C245.461 53.6185 242.987 54.237 241.555 55.3438C240.155 56.418 239.455 57.9642 239.455 59.9824C239.455 61.8704 239.96 63.2702 240.969 64.1816C241.978 65.0605 243.312 65.5 244.973 65.5C247.284 65.5 249.253 64.7676 250.881 63.3027C252.541 61.8379 253.371 59.9336 253.371 57.5898V53.293ZM319.973 21.7012C325.669 21.7012 330.324 23.3125 333.938 26.5352C337.551 29.7578 339.357 34.9173 339.357 42.0137V78H320.266V47.8242C320.266 44.1458 319.729 41.3789 318.654 39.5234C317.613 37.6354 315.92 36.6914 313.576 36.6914C309.963 36.6914 307.538 38.1725 306.301 41.1348C305.064 44.0645 304.445 48.2799 304.445 53.7812V78H285.354V22.6777H299.758L302.346 30.002H303.078C304.25 28.2441 305.65 26.7467 307.277 25.5098C308.905 24.2728 310.777 23.3288 312.893 22.6777C315.008 22.0267 317.368 21.7012 319.973 21.7012Z" fill="black"/>
</svg>
